<svg xmlns="http://www.w3.org/2000/svg" viewBox="0 0 1024 1024"><title>Hiyori</title><rect width="1024" height="1024" fill="#0D0E11"/><rect x="257" y="257" width="70" height="70" rx="20" fill="#1E2724"/><rect x="345" y="257" width="70" height="70" rx="20" fill="#1E2724"/><rect x="433" y="257" width="70" height="70" rx="20" fill="#1E2724"/><rect x="521" y="257" width="70" height="70" rx="20" fill="#1E2724"/><rect x="609" y="257" width="70" height="70" rx="20" fill="#1E2724"/><rect x="697" y="257" width="70" height="70" rx="20" fill="#1E2724"/><rect x="257" y="345" width="70" height="70" rx="20" fill="#1E2724"/><rect x="345" y="345" width="70" height="70" rx="20" fill="#1E2724"/><rect x="433" y="345" width="70" height="70" rx="20" fill="#1E2724"/><rect x="521" y="345" width="70" height="70" rx="20" fill="#1E2724"/><rect x="609" y="345" width="70" height="70" rx="20" fill="#1E2724"/><rect x="697" y="345" width="70" height="70" rx="20" fill="#1E2724"/><rect x="257" y="433" width="70" height="70" rx="20" fill="#1E2724"/><rect x="345" y="433" width="70" height="70" rx="20" fill="#1E2724"/><rect x="433" y="433" width="70" height="70" rx="20" fill="#1E2724"/><rect x="521" y="433" width="70" height="70" rx="20" fill="#1E2724"/><rect x="609" y="433" width="70" height="70" rx="20" fill="#1E2724"/><rect x="697" y="433" width="70" height="70" rx="20" fill="#34D399"/><rect x="257" y="521" width="70" height="70" rx="20" fill="#34D399"/><rect x="345" y="521" width="70" height="70" rx="20" fill="#1E2724"/><rect x="433" y="521" width="70" height="70" rx="20" fill="#1E2724"/><rect x="521" y="521" width="70" height="70" rx="20" fill="#1E2724"/><rect x="609" y="521" width="70" height="70" rx="20" fill="#34D399"/><rect x="697" y="521" width="70" height="70" rx="20" fill="#1E2724"/><rect x="257" y="609" width="70" height="70" rx="20" fill="#1E2724"/><rect x="345" y="609" width="70" height="70" rx="20" fill="#34D399"/><rect x="433" y="609" width="70" height="70" rx="20" fill="#1E2724"/><rect x="521" y="609" width="70" height="70" rx="20" fill="#34D399"/><rect x="609" y="609" width="70" height="70" rx="20" fill="#1E2724"/><rect x="697" y="609" width="70" height="70" rx="20" fill="#1E2724"/><rect x="257" y="697" width="70" height="70" rx="20" fill="#1E2724"/><rect x="345" y="697" width="70" height="70" rx="20" fill="#1E2724"/><rect x="433" y="697" width="70" height="70" rx="20" fill="#34D399"/><rect x="521" y="697" width="70" height="70" rx="20" fill="#1E2724"/><rect x="609" y="697" width="70" height="70" rx="20" fill="#1E2724"/><rect x="697" y="697" width="70" height="70" rx="20" fill="#1E2724"/></svg>